<svg xmlns="http://www.w3.org/2000/svg" xml:space="preserve" viewBox="0 0 275.26 353.22"><linearGradient id="a" x1="166.05" x2="171.77" y1="193.705" y2="193.705" gradientTransform="matrix(1 0 0 -1 0 353.89)" gradientUnits="userSpaceOnUse"><stop offset="0" style="stop-color:#62c191"/><stop offset="1" style="stop-color:#9bd5c0"/></linearGradient><path d="M171.77 159.4c-1.98.38-3.89.91-5.72 1.57" style="fill:url(#a)"/><path d="M131.97 244.83c-.03-.01-.04-.03-.07-.04" style="fill:none"/><path d="M161.68 168.19c-10.14-.23-16.34 6.07-26.97 6.5-15.4.44-25.04-18.28-16.12-30.62 9.45-14.81 27.59-13.84 35.34-33.98-14.23-9.44-31.91-11.46-47.62-6.1a33.46 33.46 0 0 1-8.98 20.69c-23.99 23.58-19.08 63.67-1.73 90.23a19.5 19.5 0 0 1 6.31-14.36c6 2.87 13.43 4.46 20.34 3.37 3.43 4.2 7.58 7.93 12.43 10.99.41-25.49 38.38-25.76 39.08-.21-.24 9.48-4.05 31.54-26.9 43.4 51.27-2.32 69.62-87.19 14.82-89.91m-29.09-59.34c5.88-.09 5.88 9.16 0 9.08-5.89.09-5.89-9.17 0-9.08" style="fill:#fff"/></svg>